<svg width="3819" height="3256" viewBox="0 0 3819 3256" fill="none" xmlns="http://www.w3.org/2000/svg">
  <!-- This is the path for the main body, filled with a gradient -->
  <path d="M778.548 220.647L2049.85 585.284L1320.58 1122.38L778.548 220.647Z M2025.21 585.284L2084.34 604.994L2133.62 619.776L2177.96 654.269L2222.31 698.617L2256.8 752.819L2281.44 821.805L2296.22 895.718L2306.08 964.703L1320.58 1122.38L2025.21 585.284Z M2306.08 959.775L2320.86 1048.47L2330.72 1105.14L2340.57 1156.88L1320.58 1122.38L2306.08 959.775Z M2340.57 1156.88L2473.62 1828.11L2355.35 1649.63L2281.44 1531.37L2222.31 1442.67L2153.33 1363.83L2015.36 1265.28L1857.68 1191.37L1749.27 1151.95L1481 1127.5L2340.57 1156.88Z M2286.37 910.5C2286.37 1058.33 2286.37 1058.33 1975.94 1058.33C1665.5 1058.33 1665.5 1058.33 1665.5 910.5C1665.5 725.445 1804.49 575.429 1975.94 575.429C2147.38 575.429 2286.37 725.445 2286.37 910.5Z"
    fill="url(#bodyGradient)"/>

  <!-- This is the path for the leg, filled with a gradient -->
  <path d="M1320.58 1122.38L2113.91 2408.47L0 1117.46L1320.58 1122.38Z"
    fill="url(#legGradient)"/>

  <!-- Definitions for the gradients used above -->
  <defs>
    <linearGradient id="bodyGradient" x1="50%" y1="0%" x2="50%" y2="100%">
      <stop offset="0%" stop-color="#8A2BE2" />
      <stop offset="100%" stop-color="#FF69B4" />
    </linearGradient>
    <linearGradient id="legGradient" x1="0%" y1="100%" x2="100%" y2="0%">
      <stop offset="0%" stop-color="#008080" />
      <stop offset="100%" stop-color="#00FFFF" />
    </linearGradient>
  </defs>

  <!-- This single path now contains all the previously separate dark shapes -->
  <path d="M2113.91 2408.47L3133.9 2359.19L1645.79 3256L2113.91 2408.47Z M3133.9 2359.19L2113.91 2408.47L1320.58 1122.38L3133.9 2359.19Z M3010.71 1206.15H3818.83L2473.62 1828.11L2754.48 1339.19L2793.9 1289.92L2843.18 1250.5L2922.02 1216.01L3010.71 1206.15Z M3242.31 1472.24L3276.8 2142.38L2473.62 1828.11L3242.31 1472.24Z M2473.62 1828.11L3276.8 2137.45V2171.95L3266.95 2206.44L3257.09 2236L3242.31 2260.64L3217.67 2295.13L3193.03 2319.77L3163.47 2339.48L3133.9 2359.19L2424.34 1876.29L2473.62 1828.11Z M1320.58 1122.38H1424.05L1532.46 1132.24L1749.27 1151.95L1842.89 1176.59L2015.36 1260.35L2153.33 1363.83L2227.24 1447.6L2473.62 1828.11L2424.34 1876.29L1320.58 1122.38Z" fill="#0c0c2c"/>
</svg>